<svg width="710" height="240" viewBox="0 0 710 240" fill="none" xmlns="http://www.w3.org/2000/svg">
<g clip-path="url(#clip0_685_643)">
<path d="M704.371 142.612C704.01 148.929 698.782 153.867 692.455 153.867C686.123 153.867 680.893 148.923 680.538 142.601L675.981 61.4644C675.448 51.9817 682.994 44 692.492 44C701.996 44 709.544 51.9914 709.002 61.4796L704.371 142.612ZM709.798 179.503C709.798 181.944 709.326 184.25 708.382 186.42C707.505 188.523 706.291 190.354 704.74 191.914C703.189 193.473 701.368 194.694 699.277 195.576C697.187 196.525 694.961 197 692.601 197C690.173 197 687.914 196.525 685.824 195.576C683.733 194.694 681.879 193.473 680.26 191.914C678.709 190.354 677.461 188.523 676.517 186.42C675.641 184.25 675.202 181.944 675.202 179.503C675.202 177.129 675.641 174.891 676.517 172.789C677.461 170.686 678.709 168.855 680.26 167.295C681.879 165.735 683.733 164.515 685.824 163.633C687.914 162.684 690.173 162.209 692.601 162.209C694.961 162.209 697.187 162.684 699.277 163.633C701.368 164.515 703.189 165.735 704.74 167.295C706.291 168.855 707.505 170.686 708.382 172.789C709.326 174.891 709.798 177.129 709.798 179.503Z" fill="white" style="fill:white;fill-opacity:1;"/>
<path d="M593.782 190H567V44H593.782V136.067L633.42 85.7422H664L629.427 129.24L664 190H633.42L612.286 152.061L593.782 176.639V190Z" fill="white" style="fill:white;fill-opacity:1;"/>
<path d="M551 188.092H544.846L534.963 174.067C532.539 176.293 529.96 178.392 527.225 180.364C524.552 182.272 521.724 183.958 518.74 185.42C515.757 186.82 512.68 187.933 509.51 188.76C506.402 189.587 503.232 190 500 190C492.976 190 486.356 188.792 480.141 186.375C473.987 183.958 468.58 180.459 463.918 175.88C459.318 171.237 455.682 165.576 453.009 158.898C450.336 152.219 449 144.618 449 136.095C449 128.145 450.336 120.862 453.009 114.247C455.682 107.569 459.318 101.845 463.918 97.0742C468.58 92.3039 473.987 88.6148 480.141 86.0071C486.356 83.3357 492.976 82 500 82C503.232 82 506.433 82.4134 509.603 83.2403C512.773 84.0671 515.85 85.212 518.834 86.6749C521.817 88.1378 524.645 89.8551 527.318 91.8269C530.053 93.7986 532.601 95.9293 534.963 98.2191L544.846 86.1025H551V188.092ZM525.36 136.095C525.36 132.534 524.676 129.099 523.309 125.792C522.004 122.42 520.201 119.463 517.901 116.919C515.601 114.311 512.898 112.244 509.79 110.717C506.744 109.127 503.481 108.332 500 108.332C496.519 108.332 493.225 108.936 490.117 110.145C487.071 111.353 484.399 113.134 482.099 115.488C479.861 117.841 478.09 120.767 476.784 124.265C475.479 127.7 474.826 131.643 474.826 136.095C474.826 140.548 475.479 144.523 476.784 148.021C478.09 151.456 479.861 154.35 482.099 156.703C484.399 159.057 487.071 160.837 490.117 162.046C493.225 163.254 496.519 163.859 500 163.859C503.481 163.859 506.744 163.095 509.79 161.569C512.898 159.979 515.601 157.912 517.901 155.367C520.201 152.76 522.004 149.802 523.309 146.495C524.676 143.124 525.36 139.657 525.36 136.095Z" fill="white" style="fill:white;fill-opacity:1;"/>
<path d="M420.78 190C414.333 190 408.277 188.797 402.612 186.391C396.946 183.921 391.965 180.572 387.667 176.346C383.434 172.055 380.08 167.081 377.606 161.424C375.196 155.768 373.991 149.721 373.991 143.284V112.27H361V85.7422H373.991V44H400.56V85.7422H441V112.27H400.56V143.284C400.56 146.08 401.081 148.713 402.123 151.184C403.165 153.589 404.598 155.703 406.421 157.523C408.245 159.344 410.394 160.807 412.868 161.912C415.343 162.952 417.98 163.472 420.78 163.472H441V190H420.78Z" fill="white" style="fill:white;fill-opacity:1;"/>
<path d="M332.78 190C326.333 190 320.277 188.797 314.612 186.391C308.946 183.921 303.965 180.572 299.667 176.346C295.434 172.055 292.08 167.081 289.606 161.424C287.196 155.768 285.991 149.721 285.991 143.284V112.27H273V85.7422H285.991V44H312.56V85.7422H353V112.27H312.56V143.284C312.56 146.08 313.081 148.713 314.123 151.184C315.165 153.589 316.598 155.703 318.421 157.523C320.245 159.344 322.394 160.806 324.868 161.912C327.343 162.952 329.98 163.472 332.78 163.472H353V190H332.78Z" fill="white" style="fill:white;fill-opacity:1;"/>
<rect width="240" height="240" rx="60" fill="#37A8FF" style="fill:#37A8FF;fill:color(display-p3 0.2156 0.6601 1.0000);fill-opacity:1;"/>
<path d="M165.235 73.125C171.465 73.125 177.336 74.2846 182.849 76.6035C188.307 78.8672 193.103 82.0693 197.238 86.2102C201.318 90.3511 204.543 95.3204 206.913 101.118C209.284 106.86 210.469 113.181 210.469 120.083C210.469 127.481 209.284 134.079 206.913 139.877C204.543 145.674 201.318 150.587 197.238 154.618C193.103 158.593 188.307 161.63 182.849 163.728C177.336 165.826 171.465 166.875 165.235 166.875C162.368 166.875 159.557 166.516 156.8 165.798C153.988 165.081 151.259 164.114 148.613 162.9C145.967 161.63 143.458 160.167 141.088 158.51C138.662 156.799 136.374 154.977 134.224 153.045L128.648 160.79C126.645 163.571 123.427 165.219 120 165.219C116.574 165.219 113.356 163.571 111.353 160.79L105.777 153.045C103.627 154.977 101.339 156.799 98.9131 158.51C96.5426 160.167 94.0342 161.63 91.388 162.9C88.7417 164.114 86.0125 165.081 83.2009 165.798C80.4444 166.516 77.6328 166.875 74.7661 166.875C68.5364 166.875 62.6649 165.826 57.1518 163.728C51.694 161.63 46.8977 158.593 42.7629 154.618C38.6833 150.587 35.4582 145.673 33.0876 139.876C30.7171 134.079 29.5317 127.481 29.5317 120.083C29.5317 113.181 30.7171 106.86 33.0876 101.118C35.4582 95.3204 38.6833 90.3511 42.7629 86.2102C46.8977 82.0693 51.694 78.8672 57.1518 76.6035C62.6649 74.2846 68.5364 73.125 74.7661 73.125C77.6329 73.125 80.4721 73.4839 83.2837 74.2017C86.0953 74.9194 88.8242 75.9132 91.4704 77.1831C94.1166 78.453 96.6254 79.9439 98.996 81.6554C101.422 83.3669 103.682 85.2164 105.777 87.204L110.686 92.1207C113.155 94.5935 116.506 95.983 120 95.983C123.495 95.983 126.846 94.5935 129.315 92.1207L134.224 87.204C136.319 85.2164 138.579 83.3669 141.005 81.6554C143.376 79.9439 145.884 78.453 148.531 77.1831C151.177 75.9132 153.906 74.9194 156.717 74.2017C159.529 73.4839 162.368 73.125 165.235 73.125ZM74.7661 95.983C71.6788 95.983 68.7569 96.5073 66.0004 97.5563C63.2991 98.6053 60.9284 100.151 58.8886 102.194C56.9039 104.237 55.3327 106.777 54.175 109.813C53.0173 112.795 52.4382 116.218 52.4382 120.083C52.4382 123.948 53.0173 127.399 54.175 130.435C55.3327 133.417 56.904 135.929 58.8886 137.971C60.9284 140.014 63.299 141.56 66.0004 142.609C68.7569 143.658 71.6788 144.183 74.7661 144.183C77.8534 144.183 80.7476 143.52 83.449 142.195C86.2054 140.815 88.6038 139.021 90.6436 136.812C92.6835 134.549 94.2824 131.981 95.4401 129.11C96.6529 126.184 97.2592 123.175 97.2592 120.083C97.2592 116.991 96.6529 114.01 95.4401 111.139C94.2824 108.212 92.6835 105.645 90.6436 103.436C88.6038 101.173 86.2055 99.3785 83.449 98.0534C80.7476 96.6731 77.8534 95.983 74.7661 95.983ZM165.235 95.983C162.148 95.983 159.253 96.6731 156.552 98.0534C153.796 99.3785 151.397 101.173 149.357 103.436C147.318 105.645 145.719 108.212 144.561 111.139C143.348 114.01 142.742 116.991 142.742 120.083C142.742 123.175 143.348 126.184 144.561 129.11C145.719 131.981 147.318 134.549 149.357 136.812C151.397 139.021 153.796 140.815 156.552 142.195C159.253 143.52 162.148 144.183 165.235 144.183C168.322 144.183 171.244 143.658 174.001 142.609C176.702 141.56 179.073 140.014 181.112 137.971C183.097 135.929 184.668 133.417 185.826 130.435C186.984 127.399 187.563 123.948 187.563 120.083C187.563 116.218 186.984 112.795 185.826 109.813C184.668 106.777 183.097 104.237 181.112 102.194C179.073 100.151 176.702 98.6053 174.001 97.5563C171.244 96.5073 168.322 95.983 165.235 95.983Z" fill="white" style="fill:white;fill-opacity:1;"/>
</g>
<defs>
<clipPath id="clip0_685_643">
<rect width="710" height="240" fill="white" style="fill:white;fill-opacity:1;"/>
</clipPath>
</defs>
</svg>
